<svg width="22" height="22" viewBox="0 0 22 22" fill="none" xmlns="http://www.w3.org/2000/svg">
<path d="M10.0833 10.0833V6.41668H11.9166V10.0833H15.5833V11.9167H11.9166V15.5833H10.0833V11.9167H6.41665V10.0833H10.0833ZM11 20.1667C5.93723 20.1667 1.83331 16.0628 1.83331 11C1.83331 5.93726 5.93723 1.83334 11 1.83334C16.0627 1.83334 20.1666 5.93726 20.1666 11C20.1666 16.0628 16.0627 20.1667 11 20.1667ZM11 18.3333C12.9449 18.3333 14.8102 17.5607 16.1854 16.1855C17.5607 14.8102 18.3333 12.9449 18.3333 11C18.3333 9.05509 17.5607 7.18983 16.1854 5.81456C14.8102 4.43929 12.9449 3.66668 11 3.66668C9.05506 3.66668 7.1898 4.43929 5.81453 5.81456C4.43926 7.18983 3.66665 9.05509 3.66665 11C3.66665 12.9449 4.43926 14.8102 5.81453 16.1855C7.1898 17.5607 9.05506 18.3333 11 18.3333Z" fill="#303030"/>
</svg>
